<svg xmlns="http://www.w3.org/2000/svg" viewBox="0 0 97.18 88.27"><defs><style>.a{fill:none;}.b,.c{fill:#006838;}.c{fill-rule:evenodd;}</style></defs><path class="a" d="M76.86,27.51l.3.11Z" transform="translate(-1.34 -8.72)"/><path class="a" d="M32.65,40a.7.7,0,0,1,0,.13A.51.51,0,0,0,32.65,40Z" transform="translate(-1.34 -8.72)"/><path class="a" d="M60.7,23.27l.16,0Z" transform="translate(-1.34 -8.72)"/><path class="a" d="M32.53,37.52c0-.72-.08.39,0,0Z" transform="translate(-1.34 -8.72)"/><path class="a" d="M51.38,23.25l.22,0Z" transform="translate(-1.34 -8.72)"/><path class="b" d="M83,26.07a5.3,5.3,0,0,0-.09-4.5c-12-5-25.58-8.45-38.26-5-7.61,2.08-15,7-18.49,13.75a16.9,16.9,0,0,0-1.45,11.59c.93,4.18,4.21,7.93,7.79,10.48A26,26,0,0,0,46,57c1.22.1,2.44.12,3.67.12V57h1c4.06,0,7.72.08,11.14,1.82a16.09,16.09,0,0,1,4.44,3.5,13.17,13.17,0,0,1,1.43,2.15c-.17-.29.3.75.29.72a11.26,11.26,0,0,0,.34,1.08,11.33,11.33,0,0,1,.13,2.25,1.34,1.34,0,0,0,0,.19l-.06.34a11,11,0,0,1-.26,1.17,9,9,0,0,1-.32,1c.14-.42-.29.65-.29.66A17.5,17.5,0,0,1,66,74.44c-1.7,2.36-4.81,4.51-7.88,6A20.78,20.78,0,0,1,54,82.08c-.81.23-1.63.42-2.45.58-.41.09-.83.16-1.24.23l-.61.09-.4,0a40,40,0,0,1-5,.19c-.84,0-1.67-.07-2.51-.13-.42,0-.84-.07-1.25-.12l-.29,0-.68-.09a66.6,66.6,0,0,1-11.2-2.67c-.88-.28-1.75-.58-2.62-.89l-1.09-.4-.41-.16-.31-.12q-2.19-.87-4.33-1.83a6.48,6.48,0,0,0-3,3.23,5.25,5.25,0,0,0,0,4.28l.3-.19c12.35,5.34,26.43,9.15,39.59,5.54,7.61-2.09,15-7,18.48-13.75a16.85,16.85,0,0,0,1.45-11.59c-.93-4.18-4.21-7.93-7.79-10.48A25.9,25.9,0,0,0,55,49.27c-1.22-.09-2.45-.11-3.67-.11l0,.05-1,0c-4,0-7.72-.08-11.13-1.82a15.94,15.94,0,0,1-4.44-3.5,13.91,13.91,0,0,1-1.44-2.15c.17.29-.3-.75-.28-.72s-.35-1.22-.35-1.08a.51.51,0,0,1,0,.13.7.7,0,0,0,0-.13,12.13,12.13,0,0,1-.12-2.25v-.19c-.08.39,0-.72,0,0a2.19,2.19,0,0,0,.06-.34A11.82,11.82,0,0,1,32.85,36c.09-.35.21-.69.33-1-.14.43.28-.64.29-.65A15.88,15.88,0,0,1,35,31.79c1.69-2.37,4.8-4.51,7.88-6.05a20.55,20.55,0,0,1,4.2-1.59c.8-.23,1.62-.42,2.45-.59l1.24-.22.6-.09.22,0-.22,0,.4,0a40.13,40.13,0,0,1,5-.19c.84,0,1.68.07,2.52.13l1.25.11.29,0-.16,0,.16,0,.67.1a66.37,66.37,0,0,1,11.2,2.67c.88.28,1.75.58,2.62.89l1.09.4.42.16.3.11-.3-.11.3.12c1.11.44,2.21.9,3.31,1.38A6.54,6.54,0,0,0,83,26.07Z" transform="translate(-1.34 -8.72)"/><path class="c" d="M95,8.83A3.79,3.79,0,0,1,97.22,9c.77.34,1.12,1.68,1.24,2.88a.33.33,0,0,1-.43.35l-.28-.08.71,1a.36.36,0,0,1,.06.2c0,.23,0,.45,0,.68a.3.3,0,0,1-.15.24.32.32,0,0,1-.28,0l-.33-.1.54.75a.28.28,0,0,1,.06.25c0,.25-.09.5-.14.75a.33.33,0,0,1-.16.22.32.32,0,0,1-.27,0l-.38-.12.49.68a.34.34,0,0,1,0,.29c-.07.25-.15.5-.23.76a.33.33,0,0,1-.42.21l-.34-.11.38.55a.31.31,0,0,1,0,.31c-.1.26-.21.53-.33.8a.32.32,0,0,1-.4.19l-.34-.1.32.45a.29.29,0,0,1,0,.33c-.12.28-.26.55-.4.82a.32.32,0,0,1-.39.17l-.33-.1.27.37a.34.34,0,0,1,0,.36l-.49.83a.32.32,0,0,1-.38.14l-.32-.1.23.32a.35.35,0,0,1,0,.38l-.56.82a.33.33,0,0,1-.37.13l-.34-.11.23.32a.35.35,0,0,1,0,.38c-.17.26-.34.53-.5.8a.31.31,0,0,1-.38.15L92.49,26l.33.46a.34.34,0,0,1,0,.36l-.42.75a.34.34,0,0,1-.39.16l-.5-.16.38.53a.34.34,0,0,1,0,.36l-.39.71a.33.33,0,0,1-.39.16l-.56-.17.42.59a.32.32,0,0,1,0,.35l-.37.66a.32.32,0,0,1-.39.15l-.76-.23.53.75a.32.32,0,0,1,0,.37l-.36.55a.35.35,0,0,1-.38.13l-.82-.26.51.72a.33.33,0,0,1,0,.38l-.38.55a.33.33,0,0,1-.37.12l-.89-.27.52.72a.33.33,0,0,1,0,.41,3.51,3.51,0,0,1-2,1.38c-.9.14-1.5-.78-2-1.8,2.28-.64,3.48-2.89,4.63-5,.4-.75.8-1.49,1.23-2.14,1.94-2.91,4.16-5.3,5.75-8.54,1.33-2.72,2.9-8.07-.43-9.83ZM79.52,30.32c-.53-.78-.47-1.74.26-1.81,2.91-.27,3.75-3.49,3-5.4A1.76,1.76,0,0,1,83,21.35l-.12.07c-1.2.67-1.67-.79-1.6-1.75,0-.49.5-.32,1-.29a14.23,14.23,0,0,0,4.47-.7c1.6-1.05,3.21-2.1,4.86-3.07.55-.33,1-.22,1.49-1.3a12.89,12.89,0,0,0,.78-2.24c.23-1,.11-2.25.94-3,4.17,2.32.44,9.67-1.53,12.4-1.4,1.92-2.74,3.47-4.07,5.46-.44.66-.84,1.41-1.25,2.18-1.08,2-2.22,4.16-4.26,4.77a7.69,7.69,0,0,1-3.31-2.4c-.5-.73-.71-.89-.88-1.14Z" transform="translate(-1.34 -8.72)"/><path class="c" d="M4.87,96.87a3.64,3.64,0,0,1-2.23-.14c-.77-.33-1.12-1.67-1.24-2.87a.33.33,0,0,1,.43-.35l.28.08-.71-1a.36.36,0,0,1-.06-.2c0-.23,0-.46,0-.68a.33.33,0,0,1,.15-.25.35.35,0,0,1,.28,0l.33.1-.54-.75a.28.28,0,0,1-.06-.25c0-.25.09-.5.14-.75a.33.33,0,0,1,.16-.22.32.32,0,0,1,.27,0l.38.12L2,89A.34.34,0,0,1,2,88.69c.07-.25.15-.5.23-.76a.33.33,0,0,1,.42-.21l.34.1-.38-.54A.31.31,0,0,1,2.51,87c.1-.27.21-.53.33-.8a.32.32,0,0,1,.4-.19l.34.1-.32-.45a.3.3,0,0,1,0-.34c.12-.27.26-.54.4-.81A.32.32,0,0,1,4,84.31l.33.1L4.08,84a.34.34,0,0,1,0-.36l.49-.83a.32.32,0,0,1,.38-.14l.32.1L5,82.49a.35.35,0,0,1,0-.38c.18-.28.37-.55.56-.82a.33.33,0,0,1,.37-.13l.34.11-.23-.33a.33.33,0,0,1,0-.37c.17-.26.34-.53.5-.8a.31.31,0,0,1,.38-.15l.45.14L7,79.3a.34.34,0,0,1,0-.36l.42-.75A.33.33,0,0,1,7.84,78l.5.16L8,77.66a.34.34,0,0,1,0-.36l.39-.71a.32.32,0,0,1,.39-.16l.56.17L8.86,76a.32.32,0,0,1,0-.35L9.2,75a.32.32,0,0,1,.39-.15l.76.23-.53-.75a.32.32,0,0,1,0-.37l.36-.55a.34.34,0,0,1,.38-.13l.82.25-.51-.71a.35.35,0,0,1,0-.39l.38-.54a.32.32,0,0,1,.37-.12l.89.27L12,71.32a.33.33,0,0,1,0-.41,3.57,3.57,0,0,1,2-1.39c.9-.13,1.5.79,2,1.81-2.28.64-3.48,2.89-4.63,5-.4.75-.8,1.49-1.23,2.14C8.25,81.42,6,83.81,4.44,87c-1.33,2.73-2.9,8.07.43,9.83ZM20.34,75.39c.53.78.47,1.74-.26,1.81-2.91.27-3.75,3.49-3,5.4a1.76,1.76,0,0,1-.21,1.76l.12-.07c1.2-.67,1.67.79,1.6,1.75,0,.49-.5.31-1,.28a14.53,14.53,0,0,0-4.47.71c-1.6,1-3.21,2.1-4.86,3.07-.55.33-1,.22-1.49,1.3A12.89,12.89,0,0,0,6,93.64c-.23,1-.11,2.25-.94,3C.87,94.34,4.6,87,6.58,84.26,8,82.34,9.31,80.79,10.64,78.8c.44-.66.84-1.41,1.25-2.18,1.08-2,2.22-4.16,4.26-4.77a7.69,7.69,0,0,1,3.31,2.4c.5.73.71.89.88,1.14Z" transform="translate(-1.34 -8.72)"/></svg>